# xmcd CD database file
#
# Track frame offsets:
#	150
#	9153
#	28068
#	39956
#	69662
#	82856
#	102775
#	124126
#	139585
#	153799
#	171968
#	186467
#	206211
#	226838
#	241847
#	256297
#
# Disc length: 3699 seconds
#
# Revision: 0
# Processed by: cddbd v1.5.2PL0 Copyright (c) Steve Scherf et al.
# Submitted via: CDex 1.51
#
DISCID=c70e7110
DTITLE=Gene Clark - Flowers On My Grave
DYEAR=1988
DGENRE=Country
TTITLE0=Introduction
TTITLE1=Silver Raven
TTITLE2=Tried So Hard
TTITLE3=My Marie
TTITLE4=Rodeo Rider
TTITLE5=Gypsy Rider
TTITLE6=Train Leaves Here This Morning
TTITLE7=Hear The Wind
TTITLE8=American Dreamer
TTITLE9=Gypsy Rider
TTITLE10=Lover's Turnaround
TTITLE11=Why Did You Leave Me Today
TTITLE12=Without You
TTITLE13=The World Turns Around Her
TTITLE14=Satisfied Mind
TTITLE15=Gates Of Eden
EXTD=YEAR: 1988
EXTT0=
EXTT1=
EXTT2=
EXTT3=
EXTT4=
EXTT5=
EXTT6=
EXTT7=
EXTT8=
EXTT9=
EXTT10=
EXTT11=
EXTT12=
EXTT13=
EXTT14=
EXTT15=
PLAYORDER=
